# Blender 5.0.0
# www.blender.org
mtllib TEST.mtl
o 立方体
v -1.000000 -1.000000 1.000000
v -1.000000 1.000000 1.000000
v -1.000000 -1.000000 -1.000000
v -1.000000 1.000000 -1.000000
v 1.000000 -1.000000 1.000000
v 1.000000 1.000000 1.000000
v 1.000000 -1.000000 -1.000000
v 1.000000 1.000000 -1.000000
v -1.000000 2.630589 1.000000
v -1.000000 2.630589 -1.000000
v 1.000000 2.630589 1.000000
v 1.000000 2.630589 -1.000000
vn -0.0000 -0.0000 -1.0000
vn -1.0000 -0.0000 -0.0000
vn -0.0000 -0.0000 1.0000
vn 1.0000 -0.0000 -0.0000
vn -0.0000 -1.0000 -0.0000
vn -0.0000 1.0000 -0.0000
vt 0.551037 0.275417
vt 0.275824 0.275417
vt 0.275824 0.000203
vt 0.275417 0.000203
vt 0.275417 0.275417
vt 0.000203 0.275417
vt 0.826657 0.275417
vt 0.551444 0.275417
vt 0.551444 0.000203
vt 0.275417 0.500203
vt 0.275417 0.775417
vt 0.000203 0.775417
vt 0.551037 0.499797
vt 0.275824 0.499797
vt 0.551037 0.500203
vt 0.551037 0.775417
vt 0.275824 0.775417
vt 0.826657 0.500203
vt 0.826657 0.775417
vt 0.551444 0.775417
vt 0.275417 0.999797
vt 0.826657 0.499797
vt 0.551444 0.499797
vt 0.275417 0.499797
vt 0.826657 0.000203
vt 0.000203 0.500203
vt 0.000203 0.999797
vt 0.551037 0.000203
vt 0.000203 0.499797
vt 0.000203 0.000203
vt 0.551444 0.500203
vt 0.275824 0.500203
s 0
usemtl マテリアル
f 4/1/1 8/2/1 7/3/1
f 1/4/2 2/5/2 4/6/2
f 6/7/3 2/8/3 1/9/3
f 7/10/4 8/11/4 6/12/4
f 7/15/5 5/16/5 1/17/5
f 5/25/3 6/7/3 1/9/3
f 5/26/4 7/10/4 6/12/4
f 3/28/1 4/1/1 7/3/1
f 3/30/2 1/4/2 4/6/2
f 3/32/5 7/15/5 1/17/5
usemtl マテリアル.001
f 4/1/1 10/13/1 12/14/1
f 12/18/6 10/19/6 9/20/6
f 6/12/4 8/11/4 12/21/4
f 6/7/3 11/22/3 9/23/3
f 4/6/2 2/5/2 9/24/2
f 2/8/3 6/7/3 9/23/3
f 11/27/4 6/12/4 12/21/4
f 8/2/1 4/1/1 12/14/1
f 10/29/2 4/6/2 9/24/2
f 11/31/6 12/18/6 9/20/6
